<svg xmlns="http://www.w3.org/2000/svg" width="119.93" height="51" viewBox="0 0 119.93 51"><title>amnesty-logo</title><path d="M.43,30.71,3.84,12.26h4l3.36,18.45H8.08l-.54-4H4.07l-.61,4Zm4.12-6.86H7.09L5.78,15.27Zm8.21,6.86V12.26H16.9L19,22a15.36,15.36,0,0,1,.23,1.61q.11,1,.21,2.5,0-1.38.12-2.47a13.62,13.62,0,0,1,.23-1.7L22,12.26h4.1V30.71H23.17l0-11.91q0-.22.06-1.2t.17-2.76q-.11.64-.28,1.5t-.47,2.35l-2.48,12H18.59l-2.49-12q-.3-1.49-.46-2.35t-.27-1.5q.11,1.77.17,2.75t.06,1.2l0,11.92H12.76Zm15.44,0V12.26h2.86l3.63,9.85a14.84,14.84,0,0,1,.44,1.47q.21.85.41,1.86h.1q-.2-1.16-.31-2.11a15,15,0,0,1-.11-1.63V12.26H38V30.71H35.35L31.47,20.09A17,17,0,0,1,31,18.46a16,16,0,0,1-.34-1.63h-.1a18.24,18.24,0,0,1,.31,2c.07.69.1,1.4.1,2.14v9.71H28.2Zm12,0V12.26H48.8v2.87H43.36v4.62h4.17v2.91H43.36V27.8h5.78v2.91h-8.9ZM50.42,25.9l2.91-.43a5,5,0,0,0,.75,2.11,1.6,1.6,0,0,0,1.35.69,1.76,1.76,0,0,0,1.32-.5,1.83,1.83,0,0,0,.49-1.34q0-1.48-3.33-4.42l-.77-.7a7.16,7.16,0,0,1-1.71-2.24,5.81,5.81,0,0,1-.6-2.55,4.33,4.33,0,0,1,1.31-3.25A4.61,4.61,0,0,1,55.47,12a4.25,4.25,0,0,1,3.08,1.13A5.3,5.3,0,0,1,60,16.36l-2.85.43a3.42,3.42,0,0,0-.61-1.68,1.44,1.44,0,0,0-1.17-.58,1.5,1.5,0,0,0-1.19.51,2,2,0,0,0-.45,1.34,2.72,2.72,0,0,0,.41,1.42,10.52,10.52,0,0,0,1.81,2l.6.55q3.67,3.3,3.67,6a4.6,4.6,0,0,1-1.34,3.41A4.69,4.69,0,0,1,55.42,31,4.57,4.57,0,0,1,52,29.68,6.18,6.18,0,0,1,50.42,25.9Zm14,4.82V15.06H61.31v-2.8h9.32v2.8h-3.1V30.72H64.39Zm12.12,0V23.06l-3.67-10.8h3.11L77.7,18a8.67,8.67,0,0,1,.22,1.08c.07.43.12.93.15,1.49q.09-1,.18-1.6a5.87,5.87,0,0,1,.21-1l1.76-5.73h3.1l-3.68,10.8v7.65H76.51ZM0,47V35.89H1.87V47Zm3.83,0V35.89H5.54l2.18,5.92a8.77,8.77,0,0,1,.26.88q.13.51.25,1.12H8.3q-.12-.69-.18-1.27a9.08,9.08,0,0,1-.06-1V35.89H9.69V47H8.12L5.79,40.6c-.12-.33-.22-.65-.31-1a9.42,9.42,0,0,1-.2-1H5.22a11,11,0,0,1,.19,1.22c0,.41.06.84.06,1.29V47H3.83Zm8.89,0V37.57H10.86V35.89h5.6v1.68H14.61V47Zm4.94,0V35.89H22.8v1.73H19.53v2.78H22v1.75H19.53v3.09H23V47Zm12.86,0H28.6l-1.35-4.61-.38,0h-.66V47H24.32V35.89h2.49a7.13,7.13,0,0,1,1.63.14,2.64,2.64,0,0,1,1,.46,2.58,2.58,0,0,1,.8,1.1,4.1,4.1,0,0,1,.29,1.57,3.72,3.72,0,0,1-.39,1.75A2.93,2.93,0,0,1,29,42.07Zm-4.3-6.1.17,0h.26a2.14,2.14,0,0,0,1.49-.42,1.87,1.87,0,0,0,.44-1.4,1.71,1.71,0,0,0-.43-1.29,2,2,0,0,0-1.38-.4l-.5,0h-.05v3.47ZM32.14,47V35.89h1.72L36,41.81a8.77,8.77,0,0,1,.26.88q.13.51.25,1.12h.06q-.12-.69-.18-1.27a9.19,9.19,0,0,1-.06-1V35.89H38V47H36.44L34.1,40.6a10.22,10.22,0,0,1-.31-1,9.42,9.42,0,0,1-.2-1h-.06a11.13,11.13,0,0,1,.19,1.22c0,.41.06.84.06,1.29V47H32.14Zm7,0,2-11.09h2.38l2,11.09H43.69l-.32-2.4H41.27L40.91,47H39.09Zm2.48-4.13h1.52L42.3,37.7ZM47.29,47V37.57H45.43V35.89H51v1.68H49.18V47Zm5,0V35.89h1.88V47H52.27Zm3.41-5.54a8.84,8.84,0,0,1,.84-4.3,2.81,2.81,0,0,1,4.93,0,11.51,11.51,0,0,1,0,8.62,2.8,2.8,0,0,1-4.93,0,8.89,8.89,0,0,1-.83-4.32Zm1.87,0a10.37,10.37,0,0,0,.35,3.13,1.08,1.08,0,0,0,2.16,0,14.38,14.38,0,0,0,0-6.25,1.08,1.08,0,0,0-2.16,0,10.35,10.35,0,0,0-.35,3.12ZM63.77,47V35.89h1.72l2.18,5.92a8.88,8.88,0,0,1,.26.88c.08.34.17.71.25,1.12h.06q-.12-.69-.18-1.27a9.13,9.13,0,0,1-.06-1V35.89h1.64V47H68.07l-2.33-6.38c-.12-.33-.22-.65-.31-1a9.38,9.38,0,0,1-.2-1h-.06a11.08,11.08,0,0,1,.19,1.22c0,.41.06.84.06,1.29V47H63.77Zm7,0,2-11.09h2.38l2,11.09H75.33L75,44.58H72.91L72.54,47Zm2.48-4.13h1.52l-.79-5.16Zm5,4.13V35.89h1.88v9.34h3.47V47Zm31.71-2.69,0,0a.7.7,0,0,0,.88-.25l.53-1,.75.7a.61.61,0,0,0,.84,0,.59.59,0,0,0,0-.83h0l-.35-.32c1.93-.5,3.28-.92,4.12-1.2l-.18.49a.58.58,0,0,0,.35.75h0a.6.6,0,0,0,.76-.35l.39-1.07.84.59a.6.6,0,0,0,.83-.14.57.57,0,0,0-.13-.8h0L118.39,40l.48-1.34a.58.58,0,0,0-.35-.75h0a.6.6,0,0,0-.76.35l-.37,1-.76-.53a.6.6,0,0,0-.82.13.57.57,0,0,0,.12.8l0,0,.59.42c-.79.28-2.23.74-4.4,1.3l.39-.75a.58.58,0,0,0-.25-.78h0a.6.6,0,0,0-.8.25l-.51,1-.68-.62a.54.54,0,0,0-.29-.13c.06-2.67.12-5.55.19-8.26l1-.18-.32.67a.58.58,0,0,0,.27.77h0a.6.6,0,0,0,.79-.28l.5-1,.77.66a.6.6,0,0,0,.84-.05.58.58,0,0,0,0-.82h0l-.48-.41a14.74,14.74,0,0,0,2.48-.79c1.39-.63,2.13-1.43,2.2-2.4a1.6,1.6,0,0,0,0-.23l1,.32a.6.6,0,0,0,.75-.36.58.58,0,0,0-.36-.74h0l-1-.35.53-.75a.58.58,0,0,0-.14-.81h0a.6.6,0,0,0-.82.15l-.59.85a8.51,8.51,0,0,0-2-1.68l-.06,0c-.56-.36-1.17-.75-1.91-1.14l.73-.53a.58.58,0,0,0,.13-.81h0a.6.6,0,0,0-.83-.12l-.89.64-.33-.86a.59.59,0,0,0-.76-.34.58.58,0,0,0-.35.74h0l.12.33-.49-.16c.35-1.42.79-3.15.55-4s-1.57-.8-1.57-.8h-5c-.59-.87-.31-1,.15-2.13s1.19-1.66,2.88-3.52c.27-.3,2.55-3.08,2.55-3.08a4.86,4.86,0,0,0,.92-2.59c0-4-3.87-6.26-3.87-6.26a9.26,9.26,0,0,1-.5,2.06c-.4,1.08-2.67,2.06-4.56,2.84-1.66.69-4.68,1-5.53,6.16.75,5.69,5.18,5.25,5.53,5.59a.86.86,0,0,1,0,1H97.18v4.25A40.54,40.54,0,0,0,91,23.71l.16-.54a.58.58,0,0,0-.39-.72h0a.59.59,0,0,0-.74.39l-.31,1-.78-.49a.6.6,0,0,0-.82.18.58.58,0,0,0,.17.8h0l.44.28c-.81.37-1.31.63-1.39.67a.58.58,0,0,0-.25.79h0a.59.59,0,0,0,.8.24s.48-.24,1.25-.59l-.21.69a.59.59,0,1,0,1.13.33h0l.33-1.09.87.54a.6.6,0,0,0,.82-.18.58.58,0,0,0-.18-.8h0l-.61-.38a41.33,41.33,0,0,1,5.93-1.81v9.51L95,32.8l.25-.46a.58.58,0,0,0-.22-.79h0a.6.6,0,0,0-.81.23l-.53,1L93,32.08a.59.59,0,0,0-.83,0,.57.57,0,0,0,0,.81l0,0,.33.32c-2.52.66-4.12,1.83-4.33,3.28a2.82,2.82,0,0,0,1,2.4l-1,.25a.58.58,0,0,0-.42.71h0a.6.6,0,0,0,.72.42L89.55,40l0,1a.59.59,0,0,0,.58.6.6.6,0,0,0,.61-.58v-.9A16.94,16.94,0,0,0,93,41.26a16.69,16.69,0,0,0,1.95.62l-.73.61a.59.59,0,0,0-.07.83h0a.61.61,0,0,0,.84.07l.88-.74.42.92a.6.6,0,0,0,.78.29l.1-.07V48.1L109.9,51s0-6.42,0-6.71Zm.62-20.76.6.21-.72.52a4.52,4.52,0,0,1,.11-.73Zm-.15,1.63a.6.6,0,0,0,.74,0l.93-.68.36.95a.59.59,0,0,0,.76.34.58.58,0,0,0,.35-.75h0l-.1-.26c.49.27.92.55,1.31.81l.07,0c.22.14.43.29.62.43a.58.58,0,0,0,.08,1.07l1.09.37-.58.83a.58.58,0,0,0,.14.81h0l.07,0a5.42,5.42,0,0,1-.76.42,13.22,13.22,0,0,1-2.21.71l.29-.61a.59.59,0,0,0-.28-.78h0a.6.6,0,0,0-.79.28l-.47,1-.7-.6a.6.6,0,0,0-.84.05.58.58,0,0,0,0,.82h0l.39.34-.72.12c.05-2.12.11-4.11.17-5.78ZM97.18,40l0,0-.84.7-.38-.83a.6.6,0,0,0-.79-.29.58.58,0,0,0-.3.76h0l.13.28a13.51,13.51,0,0,1-1.51-.5,17.3,17.3,0,0,1-1.62-.76l.3-.08a.58.58,0,0,0,.42-.71h0a.59.59,0,0,0-.72-.42l-1.07.28,0-.92a.59.59,0,1,0-1.19,0h0v.09a1.43,1.43,0,0,1-.26-1c.14-.92,1.44-1.76,3.39-2.29l-.38.69a.58.58,0,0,0,.22.8h0a.6.6,0,0,0,.81-.23l.56-1,.73.71a.6.6,0,0,0,.84,0,.58.58,0,0,0,0-.82h0L94.94,34l.15,0,2.1-.22V40Zm3.88-28.58c0-.14.41-1.25.43-1.38l.85-1.22c.66-.71,1.48-1.36,2.19-2C106,5.47,108.2,3,108.2,3s1.29,1.76-1,5.29c-.12.19-.68,1.16-.79,1.32L105.28,11a4.58,4.58,0,0,0-1,1.77c-.5,1.47-1.09,3.23-1.09,3.23a6,6,0,0,1-2.08-4.6Zm6.52,36.42c-.39-.14-8.06-2-8.19-2V33.5l1.79-.19-.37.52a.58.58,0,0,0,.13.81h0a.6.6,0,0,0,.83-.14l.67-.93.64.79a.6.6,0,0,0,.84.09.58.58,0,0,0,.1-.81h0l-.48-.58c1.37-.16,2.73-.33,4-.52V47.86Zm0-16.52c-1.26.18-2.57.35-3.9.5l.31-.43a.58.58,0,0,0-.14-.81h0a.6.6,0,0,0-.83.14l-.64.89-.58-.71a.6.6,0,0,0-.83-.09.58.58,0,0,0-.1.81h0l.38.46-1.87.2V19.79h8.19V31.34Z" fill="#fff"/></svg>