<svg xmlns="http://www.w3.org/2000/svg" width="134" height="22.99" viewBox="0 0 134 22.99"><title>bnp-logo</title><path d="M41.77,11.54a2.45,2.45,0,0,0,2-2.17c0-1.62-1.82-2.23-3.53-2.27h-4.9l0,.09c.06,1,.12,3.61.12,4.56s0,3.78-.15,5v.1H39.8c2.19,0,4.5-.7,4.5-2.68C44.3,13,43.42,12,41.77,11.54Zm-2.71,4.2H37.94c-.05-1.44-.08-3.39-.08-4s0-2.2.08-3.49a4.93,4.93,0,0,1,.89-.07c1.85,0,2.53.4,2.53,1.44a1.11,1.11,0,0,1-.25.73,2.25,2.25,0,0,1-1.93.61h0l-.52,1.38h.52a2.92,2.92,0,0,1,2.37.87,1.41,1.41,0,0,1,.32.89C41.83,15.18,40.9,15.74,39.07,15.74Zm15.44-4c0-.94.06-3.54.12-4.56l0-.09H52.4l.09,2.47c0,1.22.08,2.47.17,3.69a7.07,7.07,0,0,0-.93-1.56s-2.25-3.58-3-4.58l0,0H46.16v.09c.08,1,.11,3.62.11,4.56s0,3.78-.12,5l0,.1h2.24v-.1c-.13-2.39-.13-4.8-.13-7.14a3.36,3.36,0,0,0,.53,1.06c0,.06,3.88,5.81,4.07,6.14l0,0h1.79v-.1C54.52,15.53,54.5,12.62,54.5,11.75ZM61.35,7.1h-4.2v.09c.09,1,.12,3.61.12,4.56s0,3.78-.13,5v.1h2.66v-.1c-.09-.9-.14-2.63-.15-3.95l.5,0h.38c3.5,0,5.21-.95,5.21-2.94C65.73,7.66,63.34,7.14,61.35,7.1Zm-.95,4.56-.53,0-.22,0c0-.33,0-.76,0-1.24s0-1.35,0-2a5.71,5.71,0,0,1,.76-.06A3.06,3.06,0,0,1,63,9.05a1.37,1.37,0,0,1,.29.88C63.26,11.35,61.7,11.66,60.4,11.66Zm19-1.72C79.4,7.66,77,7.14,75,7.1H70.81v.09c.08,1,.13,3.61.13,4.56s0,3.78-.15,5v.1h2.66l0-.1c-.08-.9-.13-2.63-.13-3.95l.48,0h.39C77.68,12.88,79.4,11.93,79.4,9.93Zm-5.32,1.72-.53,0-.22,0c0-.33,0-.76,0-1.24s0-1.35,0-2a5.36,5.36,0,0,1,.75-.06,3.08,3.08,0,0,1,2.54.77,1.35,1.35,0,0,1,.29.88C76.92,11.35,75.36,11.66,74.08,11.66ZM82.93,7.1l0,0c-.5,1.39-3.69,8.53-4.2,9.62l0,.12h2.27l0-.05c.2-.67.47-1.43.76-2.24l1.89,0h1.57l.33,0c.4,1.05.71,1.85.85,2.25l0,0H89L84.76,7.1Zm1.85,6.21-1.16,0-1.41,0c.5-1.24,1-2.36,1.41-3.32.21.47.76,1.77,1.38,3.32Zm11.76-.72-.07-.07a2.59,2.59,0,0,0,2.18-2.58c0-2.25-2.39-2.79-4.41-2.84H90.07v.09c.08,1,.11,3.62.11,4.56s0,3.78-.15,5v.1h2.68v-.1c-.14-1.27-.15-4.17-.15-5,0-.68,0-2.2.09-3.42.2,0,.51,0,.72,0a3.06,3.06,0,0,1,2.52.77,1.34,1.34,0,0,1,.28.88,1.9,1.9,0,0,1-2,1.75,2.83,2.83,0,0,1-.56,0l-.19,0,.1.18c1,1.42,2.37,3.88,3,5l0,0h2.86l-.07-.13C99.19,16.59,97.33,13.78,96.54,12.58Zm6.57-.83c0-.94.06-3.54.13-4.56V7.1h-2.62v.09c.07,1,.12,3.62.12,4.56s0,3.78-.13,5v.1h2.64v-.1C103.13,15.52,103.1,12.62,103.1,11.75Zm8.94-.21a2.46,2.46,0,0,0,2-2.17c0-1.62-1.82-2.23-3.52-2.27h-4.92v.09c.08,1,.12,3.61.12,4.56s0,3.78-.13,5l0,.1h4.45c2.18,0,4.5-.7,4.5-2.68C114.58,13,113.7,12,112,11.54Zm-2.71,4.2h-1.11c-.08-1.44-.08-3.39-.08-4s0-2.2.08-3.49a4.69,4.69,0,0,1,.87-.07c1.87,0,2.55.4,2.55,1.44a1.08,1.08,0,0,1-.26.73,2.24,2.24,0,0,1-1.93.61h0l-.51,1.38h.51a2.9,2.9,0,0,1,2.37.87,1.36,1.36,0,0,1,.33.89C112.11,15.18,111.17,15.74,109.33,15.74Zm10-8.64v0c-.54,1.48-3.91,9-4.19,9.61l0,.13h2.28v-.06c.19-.67.46-1.42.75-2.25l1.88,0,1.57,0h.33c.41,1.05.72,1.85.85,2.25l0,.06h2.64L121.19,7.1Zm1.86,6.2-1.17,0-1.4,0c.5-1.25,1-2.36,1.4-3.32.21.46.76,1.76,1.38,3.32Zm9.54-2.37c-1.13-.47-2.29-.93-2.29-1.69,0-.22,0-.86,1.46-.86a7.57,7.57,0,0,1,2.71.68l.54.23V7.14l-.54-.1a12,12,0,0,0-2.39-.3c-2.42,0-4,1.17-4,2.89s1.68,2.41,3.17,3c1.16.47,2.37,1,2.37,1.79a.86.86,0,0,1-.18.6c-.28.34-.84.48-1.74.43a8,8,0,0,1-3-.85l-.44-.22v2.13l.3.08.18,0a11.39,11.39,0,0,0,2.7.4c2.81,0,4.49-1.15,4.49-3S132.27,11.55,130.74,10.93ZM14.16,0a23.41,23.41,0,0,1,4.56,2.71A26,26,0,0,0,11.9,4.85a45,45,0,0,1,6.54-.75A20.71,20.71,0,0,1,16.11,7c2-1.21,2.6-1.31,4.47-2.4.71,1,.88,3.45.9,5.36.61-1.21,1.35-5.76,1-6.59A3.15,3.15,0,0,0,24,1.83a12.23,12.23,0,0,0-2.39.3A19.56,19.56,0,0,0,14.16,0ZM6.91,20.93a7.44,7.44,0,0,1-2.7-1.65,8.38,8.38,0,0,1,1-2c-.87.13-1.52.23-2.27.37a11.6,11.6,0,0,1-1.2-3.54,12.82,12.82,0,0,0,0,3.82A11.38,11.38,0,0,0,0,18.59a21.73,21.73,0,0,0,2.33,1.27,7.91,7.91,0,0,0,1.77,2.5,4.64,4.64,0,0,1-.16-1.91A11.15,11.15,0,0,0,6.91,20.93Zm7-11.73a13.79,13.79,0,0,0-5-1.79A6.16,6.16,0,0,1,9.7,5.78,8.51,8.51,0,0,0,6.83,7.23a15.39,15.39,0,0,0-1.7,0,11.65,11.65,0,0,0-3,.52,5.3,5.3,0,0,1,3,.86A16,16,0,0,0,2,13.07a32.49,32.49,0,0,1,4-3.29S6.7,11.91,7.14,13a19.08,19.08,0,0,1,1-3.88A3.52,3.52,0,0,1,9.26,8.9,16.19,16.19,0,0,1,13.86,9.19Zm-1.14,11c0-.41-.06-.76-.08-1.22a22.89,22.89,0,0,1-1.45,1.79,8.94,8.94,0,0,1-2.58.36,6.42,6.42,0,0,0,1.68.58A11.65,11.65,0,0,1,8.65,23a12,12,0,0,0,3.12-1.17A5.77,5.77,0,0,0,13,21.75a7.11,7.11,0,0,1-.21-.85,21.23,21.23,0,0,0,2.23-2A15,15,0,0,1,12.72,20.24Z" fill="#fff"/></svg>