<svg xmlns="http://www.w3.org/2000/svg" width="179.22" height="66" viewBox="0 0 179.22 66"><title>ffb-logo</title><path d="M55.4,27.81A16.35,16.35,0,0,1,57,34.9,16,16,0,0,1,41.18,51.07a15.62,15.62,0,0,1-2.84-.26l3.47-3.59-1.08-1.09-4.12,4.27-.2-.06,1.23-1.27-.91-.92.73-.75-1.22-1.24,3.4-2.94-1.46-1.76-7,6c-.32-.27-.64-.55-.94-.84,0,.31,0,.65,0,1a21.7,21.7,0,0,0,1.23,7.22l-4.41,4.56.77.78,4.07-4.21c.19.45.39.9.61,1.34l-2.2,2.28.77.79,2-2A23.29,23.29,0,0,0,40.27,66H29.77l1.48-1.55-.77-.81L28.24,66H26.66l1.49-1.57-.5-.53-2,2.1h-9.9A26.61,26.61,0,0,0,20,62.37l2.84-1.49-.65-1.35a21.65,21.65,0,0,0,1.7-3.09l3.66-1.86-1.32-2.72-1,.51A21.77,21.77,0,0,0,25.78,48L52.24,23.37a15.69,15.69,0,0,1,2.41,3.06l.19.33-4.77,4.9.79.81ZM34.69,36.88a12.21,12.21,0,0,0-.23-2.17l-.05-.26.87-1.14-.92-.73,1.24-1.27L35,30.72,33.73,32c-.14-.41-.28-.81-.43-1.2l-.22-.55,1.3-1.21-1.27-1.43-.81.76-.49-1.13-.3-.7.61-.55L31.2,25l-.24.22-.17-.5c-.06-.17-.14-.35-.18-.52l.7.44.59-1,2.58-.91.36.34-1.51,1.68,1.27,1.2,4.31-4.79,3.91-1.39-6.74,7.42,1.61,1.53L46,19.56A16.25,16.25,0,0,1,50.8,22.1l-16.11,15C34.69,37,34.69,36.95,34.69,36.88Zm7.15-18.14,2.36-.56v.07l-.3.32c-1.4.25-2.66.53-3.8.83l-.76-.72.18-.2-1.85-1.74-4.37,4.86.26.25-.86.45.89-1.48-1.18-.75-2.08,3.44,0-.07a1.24,1.24,0,0,0-.41-.36l-.32-.18-.27-.13-.48-.21-.73-.3L32,15.83l-1.19-.75-4,6.65-.55-.24-2-.87.87-1.12L24,18.59,22.88,20l-1.61-.75-1.63-.76h0l.93-1.19L18.7,15.8l-1.3,1.68-1-.46q-1.64-.72-3.31-1.37l-.36-.14a16.59,16.59,0,0,1,.43-3.1l6.6-6.88L18.6,4.4,14.48,8.69A15.78,15.78,0,0,1,28.5,0,15.47,15.47,0,0,1,37,2.53L33.44,7.1l.89.72,3.6-4.63a16.18,16.18,0,0,1,1.27,1.07L35.31,8.4l1.41,1.38L40.54,5.7a16.29,16.29,0,0,1,2.69,4.59l-3.68,3.48,1.32,1.46,3-2.84a16.59,16.59,0,0,1,.44,3.72l-2.92.69ZM11.51,22.43l1,.84,1.71-2.2.48.19,1.68.62.75.26-2.39,3.07,1,.84,2.68-3.45,1.11.38-1,1.31,1,.84,1.31-1.68.58.21,1.93.72-1,1.24,2.46,2,1.52-1.95.34.18.36.2.19.12.24.3c.19.26.41.51.59.77l.56.8-4.55,4.23,1.6,1.8,4.27-4,.12.2.31.58-1.14,1.06,1.06,1.2-.7.65.43.48-5.86,5.45,1.27,1.43,5.27-4.9-.08,4.56-10.3,9.57a15.39,15.39,0,0,1-2.7.58l-3.2-2.8-2.11,2.53a15.54,15.54,0,0,1-2.05-.62l5.06-5.45-.87-.84L11,47.52,9.26,45.81,7,48.29a15.8,15.8,0,0,1-1.83-1.48l1-1-.64-.73L8,42.89l-.7-.8,2-1.8-.94-1.08-5.44,5a16.25,16.25,0,0,1-1.58-2.89l2.32-2.12L2.55,38l11-10.08-1.09-1.24L.26,37.82A16.64,16.64,0,0,1,0,34.89a16.29,16.29,0,0,1,2.44-8.61,15.92,15.92,0,0,1,8.33-6.64l.63.27,1.57.65Z" fill="#fff"/><path d="M101.56,50a8,8,0,0,1,3.71,6.47c0,4.68-4.86,8.57-10.86,8.57H83.69l5.68-31.91L96.22,33h.15c6.48,0,10.63,4.12,10.63,9.2C107,45.47,104.83,48.33,101.56,50ZM91.86,60.1a5,5,0,0,0,1.31.18,4.89,4.89,0,0,0,4.94-4.84c0-2.67-.86-4.05-4.8-4.06Zm3.67-22L94,47.53a5,5,0,0,0,1.44.21,4.84,4.84,0,1,0,.13-9.68ZM80,39.39l-1.46,6.87h5.23l-1.22,6.39H77.19L74.6,64.82H66.85L73.64,33h14l-1.22,6.39Zm-16.85,0-1.46,6.87h5.23l-1.22,6.39H60.35L57.75,64.82H50L56.79,33h14L69.6,39.39Z" fill="#fff"/><path d="M177.79,41.06l-3.5-5.67h0l0,.32q.07.91.07,1.66v3.7H173.3V33.94h1.41l3.49,5.65h0q0-.11,0-.82t0-1.1V33.94h1.07v7.12Zm-9.1.1a3.16,3.16,0,0,1-2.47-1,3.92,3.92,0,0,1-.86-2.72,3.86,3.86,0,0,1,.87-2.71,3.19,3.19,0,0,1,2.48-.94,3.13,3.13,0,0,1,2.45,1,3.9,3.9,0,0,1,.86,2.7,3.9,3.9,0,0,1-.87,2.7A3.13,3.13,0,0,1,168.7,41.16Zm1.57-5.65a1.85,1.85,0,0,0-1.56-.68,1.88,1.88,0,0,0-1.58.68,3.16,3.16,0,0,0-.53,2,3.2,3.2,0,0,0,.53,2,2.15,2.15,0,0,0,3.13,0,3.21,3.21,0,0,0,.53-2A3.21,3.21,0,0,0,170.26,35.5Zm-4,11.7a4.43,4.43,0,0,0-1.69-.4,1.29,1.29,0,0,0-.85.25.81.81,0,0,0-.29.65.91.91,0,0,0,.12.47,1.17,1.17,0,0,0,.38.37,6.51,6.51,0,0,0,1,.46,5.2,5.2,0,0,1,1.15.61,1.79,1.79,0,0,1,.53.64,1.93,1.93,0,0,1,.17.84,1.79,1.79,0,0,1-.69,1.49,3,3,0,0,1-1.89.54,4.51,4.51,0,0,1-2-.37v-1.1a5.43,5.43,0,0,0,1,.36,4.36,4.36,0,0,0,1,.13,1.62,1.62,0,0,0,1-.26.86.86,0,0,0,.33-.71.89.89,0,0,0-.3-.68,4.51,4.51,0,0,0-1.24-.66,3.29,3.29,0,0,1-1.37-.9,1.91,1.91,0,0,1-.4-1.22,1.71,1.71,0,0,1,.63-1.4,2.62,2.62,0,0,1,1.7-.51,5,5,0,0,1,2,.45Zm-3.29-13.27h1.16v7.12h-1.16ZM160,41.06h-1.16V34.94h-2.09v-1h5.34v1H160Zm-4.38,0-.71-2h-2.72l-.7,2H149.1l-1.7-2.84h-1.15v2.84h-1.16V33.94h2a3.29,3.29,0,0,1,2,.52A1.85,1.85,0,0,1,149.8,36a2,2,0,0,1-1.38,1.9l1.91,3,2.6-7h1.26l2.66,7.15Zm-7-5a1,1,0,0,0-.39-.87,2.16,2.16,0,0,0-1.19-.26h-.77v2.33h.81a1.83,1.83,0,0,0,1.18-.3A1.1,1.1,0,0,0,148.6,36.05Zm5.33.09c0-.13-.12-.33-.2-.61s-.14-.48-.18-.61a10.73,10.73,0,0,1-.38,1.31l-.64,1.85h2.07Zm-9.21,13.5V45.91h1.06V53h-1.42l-3.49-5.67h0l0,.32q.07.91.07,1.66V53h-1.05V45.91h1.41l3.49,5.65h0c0-.07,0-.35,0-.82S144.73,49.9,144.73,49.64Zm-4.94-15.7h4v1h-2.86v1.94h2.68v1h-2.68v2.24h2.86v1h-4Zm2-.57H141v-.12q.28-.34.57-.76t.46-.72h1.33v.1a9.88,9.88,0,0,1-.76.77A10.62,10.62,0,0,1,141.75,33.37ZM142,59.66a1.64,1.64,0,0,1-.32,1,1.43,1.43,0,0,1-.92.52v0a1.83,1.83,0,0,1,1.1.56,1.69,1.69,0,0,1,.35,1.13,1.83,1.83,0,0,1-.67,1.5,2.87,2.87,0,0,1-1.86.54h-2.57V57.88h2.11a4,4,0,0,1,2.12.43A1.5,1.5,0,0,1,142,59.66ZM138.24,64h1.24a1.81,1.81,0,0,0,1.1-.28,1,1,0,0,0,.37-.88.94.94,0,0,0-.38-.82,2,2,0,0,0-1.15-.27h-1.18Zm2.16-4.94a2.26,2.26,0,0,0-1.15-.22h-1v2h1.12a1.92,1.92,0,0,0,1.07-.23.89.89,0,0,0,.33-.79A.79.79,0,0,0,140.39,59.08Zm-3.16-8h-2.72l-.69,2h-2.39l-1.7-2.84h-1.15V53h-1.16V45.91h2a3.29,3.29,0,0,1,2,.52,1.85,1.85,0,0,1,.66,1.56,2,2,0,0,1-1.38,1.9l1.91,3,2.6-7h1.26L139.18,53h-1.23Zm-6.3-3a1,1,0,0,0-.39-.87,2.16,2.16,0,0,0-1.19-.26h-.77v2.33h.81a1.83,1.83,0,0,0,1.18-.3A1.1,1.1,0,0,0,130.93,48Zm5.33.09q-.07-.2-.2-.61t-.18-.61a11.15,11.15,0,0,1-.38,1.31L134.86,50h2.07Zm-1.55-7.05h-2V33.94h2.2a3.63,3.63,0,0,1,2.64.92,3.43,3.43,0,0,1,.94,2.58,3.55,3.55,0,0,1-1,2.7A3.92,3.92,0,0,1,134.72,41.06Zm.18-6.15h-1v5.17h.83a2.29,2.29,0,0,0,2.57-2.61Q137.29,34.91,134.9,34.91Zm-7.47-1h4v1h-2.86v1.94h2.68v1h-2.68v2.24h2.86v1h-4Zm2-.57h-.76v-.12q.28-.34.57-.76c.2-.28.35-.52.46-.72H131v.1a10.12,10.12,0,0,1-.76.77A10.45,10.45,0,0,1,129.38,33.37Zm-2.21,30.7a3.92,3.92,0,0,1-2.81.93h-2V57.88h2.2a3.63,3.63,0,0,1,2.64.92,3.42,3.42,0,0,1,.94,2.58A3.55,3.55,0,0,1,127.18,64.07Zm-2.63-5.21h-1V64h.83a2.29,2.29,0,0,0,2.57-2.61Q126.93,58.86,124.54,58.85Zm-1-9.73h2.68v1h-2.68V53h-1.15V45.91h4v1h-2.86Zm0-12h2.68v1h-2.68v2.92h-1.15V33.94h4v1h-2.86Zm9.92,21.71h-2.86V60.8h2.68v1h-2.68V64h2.86v1h-4V57.88h4Zm14-.47A1.86,1.86,0,0,1,148.1,60a2,2,0,0,1-1.38,1.9l2,3.15h-1.32l-1.7-2.84h-1.15V65H143.4V57.88h2A3.3,3.3,0,0,1,147.44,58.4Zm-2.88.47v2.33h.81a1.83,1.83,0,0,0,1.18-.3,1.1,1.1,0,0,0,.36-.9,1,1,0,0,0-.39-.87,2.16,2.16,0,0,0-1.19-.26ZM150,54.67a.31.31,0,0,0,.15-.3q0-.41-.87-.53l.38-.76a2.81,2.81,0,0,1-1.81-.9,4,4,0,0,1-.84-2.71,4.38,4.38,0,0,1,.41-1.94,2.9,2.9,0,0,1,1.17-1.28,3.55,3.55,0,0,1,1.8-.44,4.47,4.47,0,0,1,2,.46l-.42,1a6.37,6.37,0,0,0-.76-.3,2.73,2.73,0,0,0-.84-.13,1.91,1.91,0,0,0-1.57.71,3.74,3.74,0,0,0,0,3.95,2,2,0,0,0,1.6.67,4.2,4.2,0,0,0,.88-.09q.42-.09.88-.23v1a5.26,5.26,0,0,1-1.76.31l-.16.34a1.25,1.25,0,0,1,.61.33.78.78,0,0,1,.22.55q0,1.08-1.48,1.08a2.21,2.21,0,0,1-.59-.07v-.67a2.41,2.41,0,0,0,.6.07A.91.91,0,0,0,150,54.67ZM150.67,65h-1.16V57.88h1.16Zm6.46-6.21a3.42,3.42,0,0,1,.94,2.58,3.55,3.55,0,0,1-1,2.7,3.92,3.92,0,0,1-2.81.93h-2V57.88h2.2A3.63,3.63,0,0,1,157.13,58.8Zm-3.67.06V64h.83a2.29,2.29,0,0,0,2.57-2.61q0-2.56-2.39-2.56Zm3.71-7.8h-2.72l-.69,2h-1.23l2.66-7.15h1.26L159.12,53h-1.23Zm-1-2.94c0-.13-.12-.33-.2-.61s-.15-.48-.18-.61a10.78,10.78,0,0,1-.38,1.31L154.8,50h2.07Zm3.61-2.2H161V53h-1.16Zm2.9,11.87a5.28,5.28,0,0,1,2.11.43l-.41,1a4.1,4.1,0,0,0-1.73-.4,2.33,2.33,0,0,0-1.8.72,2.77,2.77,0,0,0-.66,2,2.93,2.93,0,0,0,.6,2,2.16,2.16,0,0,0,1.71.68,5.58,5.58,0,0,0,1.21-.14V62.14h-1.47v-1h2.62v3.57a7.68,7.68,0,0,1-1.23.3,8.77,8.77,0,0,1-1.28.09,3.2,3.2,0,0,1-2.49-1,3.86,3.86,0,0,1-.87-2.7,3.6,3.6,0,0,1,1-2.69A3.7,3.7,0,0,1,162.71,57.78Zm7.65,1.09H167.5V60.8h2.68v1H167.5V64h2.86v1h-4V57.88h4ZM171.84,52v1h-4V45.91h4v1H169v1.94h2.68v1H169V52Z" fill="#fff"/><path d="M113,33h2V65h-2Z" fill="#fff"/></svg>