<svg xmlns="http://www.w3.org/2000/svg" width="85.01" height="87.01" viewBox="0 0 85.01 87.01"><title>formation</title><path d="M81.29,41c3.48-4.3,3.71-6.81,3.71-7.17a6.32,6.32,0,0,1-.49-.83L72.77,13,80.56,1.91a1.3,1.3,0,0,0,0-1.31,1.47,1.47,0,0,0-1.2-.6L29.64,5.26a1.19,1.19,0,0,0-.84.48L.18,46.85a1.29,1.29,0,0,0,0,1.31,1.25,1.25,0,0,0,1.08.6h.12L15,47.33,26.78,67.17a.92.92,0,0,0,.48.48,8.3,8.3,0,0,0,3.83.6c4.56,0,13.42-1.67,28.63-10.64l.6-.36A94.72,94.72,0,0,0,76.38,45.89l1.32,3a1.07,1.07,0,0,0,.72.72c.12,0,.24.12.36.12a.92.92,0,0,0,.6-.12L84,46.85a1.53,1.53,0,0,0,.6-.83.94.94,0,0,0-.24-1Zm.94-7.05a13.68,13.68,0,0,1-2.75,4.9l-1-1.2a5,5,0,0,0-6-6.82L66.9,21.39l4.31-6.09ZM3.65,46,30.48,7.77l46.6-4.9L65.11,20,40.67,22a1.2,1.2,0,1,0,.24,2.39l22.4-1.91L50.25,41.11ZM59,55.09l-.6.36C38.27,67.29,30,66,28.45,65.49L17.55,47,51,43.5A1.19,1.19,0,0,0,51.8,43L65.46,23.54l5,8.48a5.36,5.36,0,0,0-1.32,2.27,5.29,5.29,0,0,0,.48,3.82,5.11,5.11,0,0,0,3,2.27,4.54,4.54,0,0,0,1.32.12l1.2,2.87A86.62,86.62,0,0,1,59,55.09ZM75.29,37.76a2.18,2.18,0,0,1-1.92.24,2.27,2.27,0,0,1-1.56-1.2,2.17,2.17,0,0,1-.24-1.91,2.26,2.26,0,0,1,1.2-1.56A2.44,2.44,0,0,1,74.09,33a2.72,2.72,0,0,1,2.28,1.31A2.6,2.6,0,0,1,75.29,37.76Zm4,8.85-2.88-6.69a.12.12,0,0,0,.12-.12c.12-.12.36-.24.48-.36l1.32,1.79c.12.12.12.36.36.48h.12l2.76,3.47ZM65.47,63.82a1.13,1.13,0,0,0-1.2,1.2V77.33a1.2,1.2,0,0,0,2.4,0V65A1.2,1.2,0,0,0,65.47,63.82Zm6.46.48a1.13,1.13,0,0,0-1.2,1.2V79.84a1.2,1.2,0,0,0,2.4,0V65.49A1.2,1.2,0,0,0,71.93,64.3Zm6-9.21a1.13,1.13,0,0,0-1.2,1.2v15.9a1.2,1.2,0,0,0,2.4,0V56.29A1.29,1.29,0,0,0,77.92,55.09ZM33.6,73.86a1.13,1.13,0,0,0-1.2,1.2V85.81a1.2,1.2,0,0,0,2.4,0V75.06A1.2,1.2,0,0,0,33.6,73.86Zm31.87,6.46a1.13,1.13,0,0,0-1.2,1.19v4.3a1.2,1.2,0,0,0,2.4,0v-4.3A1.29,1.29,0,0,0,65.47,80.32Zm12.22-4.78a1.13,1.13,0,0,0-1.2,1.2V81a1.2,1.2,0,0,0,2.4,0v-4.3A1.2,1.2,0,0,0,77.69,75.53Zm-49.24-3a1.13,1.13,0,0,0-1.2,1.2V78a1.2,1.2,0,0,0,2.4,0v-4.3A1.2,1.2,0,0,0,28.45,72.55Z" fill="#fff"/></svg>