<svg xmlns="http://www.w3.org/2000/svg" width="79" height="39" viewBox="0 0 79 39"><title>france-tv-logo</title><path d="M4.37,34.71v-1H3.55v5.16h.84V36A1.42,1.42,0,0,1,6,34.39h.38v-.8a4.31,4.31,0,0,0-.47,0A1.39,1.39,0,0,0,4.37,34.71Zm6.88,3.07V35.24c0-1.23-.52-1.67-1.92-1.67-2.18,0-2.18,1-2.18,1.73H8c0-.76.16-1,1.25-1,.84,0,1.17.12,1.17.81,0,.15,0,.59-.29.63-2.7.35-3.15.73-3.15,1.76S7.38,39,8.66,39s1.51-.38,1.79-.78c.12.5.29.65.94.65h.35v-.64C11.43,38.22,11.25,38.21,11.25,37.78Zm-.84-.95c0,1-.55,1.48-1.58,1.48-.59,0-1-.18-1-.77s0-.88,1.45-1.06a5.67,5.67,0,0,0,1.15-.26Zm4.73-3.27c-1.15,0-1.47.53-1.64.93v-.8h-.84v5.16h.84v-3c0-1.27.7-1.59,1.49-1.59,1,0,1,.53,1,1.31v3.28h.84V35.35C16.86,34.6,16.82,33.57,15.14,33.57Zm5.15,4.75c-1.24,0-1.6-.69-1.6-2s.45-2.07,1.6-2.07,1.24.56,1.33,1.06h.83c0-.72-.38-1.75-2.13-1.75-1.59,0-2.49.8-2.49,2.74,0,2.29,1.27,2.7,2.43,2.7,1.94,0,2.23-1.24,2.23-1.92h-.83C21.59,37.66,21.54,38.31,20.29,38.31Zm5.46-4.75c-1.66,0-2.51.75-2.51,2.85,0,1.91,1,2.59,2.41,2.59,1.8,0,2.19-.88,2.25-1.68H27.1c-.12.66-.41,1-1.41,1-1.48,0-1.57-1-1.57-1.74H28c0-.13,0-.26,0-.39C28,33.56,26.36,33.57,25.75,33.57Zm-1.62,2.31c.09-.84.29-1.62,1.54-1.62s1.44.65,1.44,1.62Zm7.34-3.81H30.1V33.7h-.68v.91h.68v3a1.48,1.48,0,0,0,.27,1,1.77,1.77,0,0,0,1.14.26h.79v-1h-.44a.42.42,0,0,1-.31-.08c-.09-.09-.09-.21-.09-.46V34.61h.84V33.7h-.84Zm4.09,1.5c-1.91,0-2.55,1.09-2.55,2.74,0,1.8.74,2.7,2.49,2.7,2,0,2.32-1,2.43-1.66H36.58c-.09.31-.15.63-1,.63s-1.25-.42-1.25-1.25H38C38.08,35.23,37.81,33.57,35.55,33.57Zm-1.17,2.2c.07-.52.13-1.15,1.23-1.15.88,0,1,.55,1,1.15Zm2.51-4.13H35.72l-.51,1.52h.65ZM39,38.86h1.36V31.74H39Zm6.3-7.24H44.13l-.51,1.52h.64ZM44,33.57c-1.91,0-2.55,1.09-2.55,2.74,0,1.8.74,2.7,2.49,2.7,2,0,2.32-1,2.43-1.66H45c-.09.31-.15.63-1,.63s-1.25-.42-1.25-1.25h3.66C46.49,35.23,46.21,33.57,44,33.57Zm-1.17,2.2c.07-.52.13-1.15,1.23-1.15.88,0,1,.55,1,1.15Zm6.67,1.61-1-3.66H46.93l1.86,5.16h1.29l1.85-5.16H50.49Zm3.25,1.49h1.36V33.7H52.7Zm0-5.83h1.36V31.74H52.7ZM58,35.73c-1.23-.25-1.54-.27-1.54-.68s.42-.47.81-.47c.81,0,.89.27.93.74h1.28c0-.36,0-1.75-2.19-1.75-1.15,0-2.14.33-2.14,1.58,0,.91.54,1.28,1.81,1.55,1,.23,1.39.17,1.39.65s-.48.63-1,.63c-1.08,0-1-.43-1.08-.94H55c0,.57.1,2,2.35,2,1.54,0,2.36-.51,2.36-1.64C59.71,36.39,59.12,36,58,35.73ZM60.66,33H62V31.74H60.66Zm0,5.83H62V33.7H60.66Zm4.87-5.3c-1.49,0-2.61.6-2.61,2.76,0,1.86.87,2.68,2.56,2.68,1.95,0,2.59-1.1,2.59-2.73C68.07,34.4,67.24,33.57,65.53,33.57ZM65.43,38c-.84,0-1.15-.49-1.15-1.71s.37-1.66,1.29-1.66,1.13.5,1.13,1.55S66.54,38,65.43,38Zm6.22-4.41c-1.15,0-1.27.52-1.37.84v-.7H69v5.16h1.36V35.53c0-.71.3-.9.87-.9s.9.3.9.81v3.42h1.36V35.21C73.46,34,72.83,33.57,71.65,33.57Zm5.66,2.17c-1.23-.25-1.54-.27-1.54-.68s.42-.47.81-.47c.81,0,.89.27.93.74h1.28c0-.36,0-1.75-2.19-1.75-1.15,0-2.14.33-2.14,1.58,0,.91.54,1.28,1.81,1.55,1,.23,1.39.17,1.39.65s-.48.63-1,.63c-1.09,0-1-.43-1.09-.94H74.29c0,.57.1,2,2.35,2,1.54,0,2.36-.51,2.36-1.64C79,36.39,78.41,36,77.31,35.73Zm-55-30.2L12.62,2.25c-.26-.06-.46,0-.46.31V23.72c0,.29.2.38.46.31l9.69-3.28c.45-.12.63-.31.63-.7V6.23C22.94,5.84,22.76,5.65,22.31,5.53ZM43.18,21.26V5.13a1,1,0,0,0-.17-.7L38.65.23C38.52.09,38.48,0,38.36,0h-.3C38,0,37.9.08,37.9.25V26.14c0,.17.07.25.16.25h.3c.12,0,.16-.06.28-.23L43,22A1,1,0,0,0,43.18,21.26Zm23.47,4h.2c.15,0,.19-.11.19-.3V1.38c0-.19,0-.29-.19-.29h-.2a.79.79,0,0,0-.37.15L60.42,5c-.31.21-.43.26-.43.63V20.71c0,.37.12.42.43.63l5.86,3.73A.78.78,0,0,0,66.65,25.22Zm-11.5,1.17c.09,0,.16-.08.16-.25V.25c0-.17-.07-.25-.16-.25h-.29c-.1,0-.16.1-.29.23L50.2,4.43a1,1,0,0,0-.17.7V21.26a1,1,0,0,0,.17.7l4.37,4.2c.12.17.16.23.28.23h.3ZM33.22,20.72V5.6c0-.36-.12-.42-.43-.63L26.93,1.24a.8.8,0,0,0-.37-.15h-.19c-.15,0-.19.11-.19.29V24.93c0,.19,0,.29.19.29h.19a.8.8,0,0,0,.37-.15l5.86-3.73C33.1,21.14,33.22,21.08,33.22,20.72ZM.7,33v.68H0v.77H.7v4.39h.84V34.47h.94V33.7H1.55v-.64c0-.37,0-.6.69-.6h.26v-.71l-.49,0C.85,31.74.71,32.32.7,33Z" fill="#fff"/></svg>