<svg xmlns="http://www.w3.org/2000/svg" width="80" height="31" viewBox="0 0 80 31"><title>kilix-logo</title><path d="M72.33,19.82,80,31H73.51L72.4,29.46h0l-3-4.18,0,0-.54-.72-.54.72-.15.22C65.6,28.93,62.62,31,58.35,31h-.7l7.67-11.18v0L57.67,8.63h6.49l1.8,2.46h0l.7,1-1.44-2,3.63,5,.52-.7.15-.22C72,10.68,75,8.63,79.23,8.63H80L72.32,19.8ZM50.83,10.5a2.79,2.79,0,1,1,2.78-2.79A2.79,2.79,0,0,1,50.83,10.5Zm2.24,2.83V31H47.45V20C47.45,16.32,49.38,13.34,53.06,13.34ZM36.8,6.68C36.8,3,38.73,0,42.41,0V31H36.8ZM29,10.5a2.79,2.79,0,1,1,2.78-2.79A2.79,2.79,0,0,1,29,10.5Zm2.24,2.83V31H25.6V20C25.6,16.32,27.53,13.34,31.21,13.34ZM14.14,31,9.78,25.46,5.61,31H0V0C3.68,0,5.61,3,5.61,6.68V19.47L14.14,8.63h7.21L13,19.82,21.35,31Z" fill="#fff" fill-rule="evenodd"/></svg>