<svg xmlns="http://www.w3.org/2000/svg" width="80" height="82.99" viewBox="0 0 80 82.99"><title>poc</title><path d="M49.25,42.51c-1-.14-2,0-3.13-.14A2.57,2.57,0,0,1,44.35,41a3.37,3.37,0,0,1,.14-2.3c.68-1.89,1.5-3.93,2.59-6.9.27-.54.41-1.22.68-1.76l.82-2.3v-.14L49,26.54l-1.22-.27H32.92l-.68.14-.14.68a.5.5,0,0,1-.14.41c-.27,2-.41,3.79-.68,5.42l-.41,3.52c-.14,1.22-.27,2.3-.41,3.52l-.41,3.25-.54,4.87v1.35l.82.14h5.58a3,3,0,0,1,2.31.81,2.76,2.76,0,0,1,.54,2.17c-.27,1.9-.68,3.93-1,6l-1,5.28a1.7,1.7,0,0,0,.41,1.76l.27.27h.54a1.65,1.65,0,0,0,1.36-1.08l1.63-3c3.67-7,6.53-12.46,9.11-17.74l.41-1.35-1.22-.13Zm-6.8,10a5.3,5.3,0,0,0-1.36-4.06,6,6,0,0,0-4.76-2H33.2L35,32.63c.14-.95.27-1.9.41-3h9.11l-.41,1.08c-1,2.3-1.77,4.6-2.59,6.91a6.72,6.72,0,0,0,0,4.74,5.73,5.73,0,0,0,4.22,3.38h.14C44.76,47.93,43.54,50.09,42.45,52.53ZM58.5,19.63c-5.44-5-11.56-7.58-18-7.58H39.45c-6.39,0-12.52,2.57-18,7.58C14.83,25.86,10.2,37.5,16.05,48.2c.54.95,1.09,2,1.63,3l.27.54c.82,1.62,1.63,3,2.45,4.47a34.52,34.52,0,0,1,4.22,11.24A16.51,16.51,0,0,1,24.9,70c.27,3,2,6.23,4.9,9.07l.14.14a15.63,15.63,0,0,0,20.41,0l.14-.14C53.33,76.22,55.1,73,55.37,70a14.44,14.44,0,0,1,.41-2.57A36.94,36.94,0,0,1,60,56.19c.82-1.49,1.63-3,2.45-4.6l.27-.54c.54-.95,1.09-2,1.63-3C69.79,37.37,65.3,25.86,58.5,19.63Zm2.31,26.81c-.54.95-1.09,2-1.63,3l-.27.54-2.45,4.47a36.12,36.12,0,0,0-4.63,12.32c-.14.95-.27,2-.41,3-.14,2.17-1.63,4.6-3.81,6.77A10.84,10.84,0,0,1,40,79.34a12.41,12.41,0,0,1-7.76-2.84c-2.18-2.17-3.67-4.74-3.81-6.77-.14-.95-.27-2-.41-3A36.15,36.15,0,0,0,23.4,54.43c-.82-1.35-1.5-2.84-2.31-4.33l-.27-.54c-.54-.95-1.09-2-1.63-3-5-9.07-1.09-19,4.63-24.23,4.76-4.47,9.93-6.64,15.51-6.64h1.09c5.58,0,10.75,2.3,15.51,6.64C61.77,27.48,65.71,37.37,60.81,46.44ZM10.2,55.1a1.73,1.73,0,0,0-.82.14,22.57,22.57,0,0,0-3.4,2c-.68.54-1,.95-1,1.35a1.22,1.22,0,0,0,.14.68,2,2,0,0,0,2,1.08c.14,0,.27-.14.41-.14,1.09-.54,2.18-1.22,3.54-2a1.69,1.69,0,0,0,.54-2.3A1.88,1.88,0,0,0,10.2,55.1Zm63.67,2a23.35,23.35,0,0,0-3.13-1.76c-.14-.13-.54-.13-.68-.27a1.9,1.9,0,0,0-1.9,1.22,1.67,1.67,0,0,0,.54,1.89,32.17,32.17,0,0,0,3.4,2,2.54,2.54,0,0,0,1,.27,1.57,1.57,0,0,0,1.5-.81A1.81,1.81,0,0,0,73.88,57.13ZM56.46,11.37a2,2,0,0,0,1,.27,1.73,1.73,0,0,0,1.5-.95c.68-.95,1.22-2,1.91-3.11-.14-.14,0-.41,0-.54a1.92,1.92,0,0,0-1.09-1.89c-.14,0-.41-.14-.54-.14a1.68,1.68,0,0,0-1.36.68c-.68,1.08-1.36,2.3-1.91,3.25A1.73,1.73,0,0,0,56.46,11.37ZM9.11,24.1a1.68,1.68,0,0,0,2.45-.68A1.67,1.67,0,0,0,10.88,21c-1-.54-2-1.22-3.13-1.76-.14-.14-.54-.14-.68-.27a2,2,0,0,0-1.9,1.22,1.67,1.67,0,0,0,.54,1.89C6.67,22.74,7.76,23.29,9.11,24.1Zm60.81,0a.9.9,0,0,0,.82-.14c1.09-.54,2.31-1.35,3.27-1.9a1.77,1.77,0,0,0,.82-1.62,1.65,1.65,0,0,0-1.63-1.62,1.73,1.73,0,0,0-.82.14,25.63,25.63,0,0,0-3.27,1.9,1.67,1.67,0,0,0-.68,2.44A1.56,1.56,0,0,0,69.93,24.1ZM21.5,10.83a2.07,2.07,0,0,0,1.5.95c0-.14.27-.14.68-.41a1.77,1.77,0,0,0,.68-2.44c-.54-.95-1.09-2-1.77-3.11A1.71,1.71,0,0,0,21.09,5a1.56,1.56,0,0,0-1.5.81,2,2,0,0,0,0,1.76C20.14,8.66,20.82,9.61,21.5,10.83ZM40,7a1.77,1.77,0,0,0,1.77-1.62V1.49A1.58,1.58,0,0,0,40,0a1.77,1.77,0,0,0-1.77,1.49V5.41A1.77,1.77,0,0,0,40,7ZM7.21,39.53a1.57,1.57,0,0,0-1.63-1.62H1.77A1.77,1.77,0,0,0,0,39.53a1.68,1.68,0,0,0,1.63,1.76H5.58A1.68,1.68,0,0,0,7.21,39.53Zm71.15-1.62H74.42a1.57,1.57,0,0,0-1.63,1.62,1.77,1.77,0,0,0,1.63,1.76h3.95A1.57,1.57,0,0,0,80,39.67,1.77,1.77,0,0,0,78.36,37.91Z" fill="#fff"/></svg>