<svg xmlns="http://www.w3.org/2000/svg" width="113" height="22" viewBox="0 0 113 22"><title>societe-generale-logo</title><path d="M0,22H22.1V0H0ZM3.86,10.33H18.24v1.34H3.86ZM42.3,17.82h5.22V16.3H42.3V14.07H49V12.55H40.59v9.2h8.72V20.23h-7ZM33.57,8.15A8.32,8.32,0,0,1,29.41,7l-.67,1.45a9.45,9.45,0,0,0,4.82,1.24c3,0,4.55-1.24,4.55-2.85,0-3.88-7.37-2.42-7.37-4.24,0-.63.83-1,2.48-1a9.59,9.59,0,0,1,3.59.83l.68-1.38a9.32,9.32,0,0,0-4.3-1C30.46.07,29,1.15,29,2.72c0,3.64,7.38,2.15,7.38,4.14C36.34,7.63,35.37,8.15,33.57,8.15Zm3.09,11.69a6.43,6.43,0,0,1-2.64.56c-2.27,0-3.68-1.36-3.68-3.27A3.27,3.27,0,0,1,34,13.88,5.33,5.33,0,0,1,37.35,15l.91-1.35A6.94,6.94,0,0,0,34,12.27c-3.06,0-5.42,2-5.42,4.86S30.86,22,34,22a8.12,8.12,0,0,0,4.38-1.26V17.16H36.67ZM96.91,8h-7V5.57h5.22V4H89.91V1.81h6.7V.29H88.2V9.5h8.72ZM76.65,8h-7V5.57h5.21V4H69.65V1.81h6.7V.29H67.93V9.5h8.72ZM65.4.29H63.68V9.5H65.4ZM82.46,15.48a2.89,2.89,0,0,0-3.19-2.93H73.32v9.2H75V18.37H77.8l2.61,3.39h2.15l-2.75-3.43A2.85,2.85,0,0,0,82.46,15.48ZM75,16.83V14.07h4.23a1.33,1.33,0,0,1,1.5,1.42c0,.8-.61,1.35-1.68,1.35ZM86.82.29H77.57V1.8h3.77V9.5H83V1.8h3.77ZM106,20.23V17.82h5.22V16.3H106V14.07h6.71V12.55h-8.43v9.2H113V20.23ZM87.66,12.55l-4.51,9.2H85l1.06-2.23h5l1.06,2.23H94l-4.51-9.2ZM86.79,18l1.79-3.73L90.35,18Zm10.16-5.48H95.23v9.2h7.89V20.23H96.95ZM45,0c-2.95,0-5.39,2-5.39,4.88S42.08,9.75,45,9.75s5.37-2,5.37-4.87S48,0,45,0ZM45,8.2a3.3,3.3,0,0,1-3.61-3.31A3.36,3.36,0,0,1,45,1.58,3.32,3.32,0,1,1,45,8.2ZM58.7,15c0,1.36,0,2.78.11,4.52h0l-6-6.94H51v9.2h1.68v-2.4c0-.78,0-3.16-.07-4.52h0l6,6.93h1.74v-9.2H58.7Zm-1.2-6.8c-2.27,0-3.68-1.38-3.68-3.28s1.4-3.27,3.66-3.27a5.32,5.32,0,0,1,3.34,1.13l.91-1.35A6.85,6.85,0,0,0,57.43,0C54.37,0,52,2,52,4.87s2.33,4.87,5.43,4.87a7.07,7.07,0,0,0,4.38-1.35L60.89,7A5.45,5.45,0,0,1,57.5,8.15Zm7,9.68h5.22V16.3H64.5V14.07h6.71V12.55H62.79v9.2h8.72V20.23h-7Z" fill="#fff" fill-rule="evenodd"/></svg>