<svg xmlns="http://www.w3.org/2000/svg" width="92" height="20" viewBox="0 0 92 20"><title>vamos-logo</title><path d="M52.44,17.1a13.4,13.4,0,0,1,0-3.37c.16-1.48.6-2.09.52-3.52-.25-4.57-3.74-5.68-5.56-5.68-3.84,0-5.08,1.78-5.39,4.24-.31-2.47-1.56-4.24-5.39-4.24-1.84,0-5.31,1.11-5.56,5.68-.09,1.43.35,2.05.52,3.52a12.68,12.68,0,0,1,0,3.37c-.22,1.61-1.85,1.54-2.67,1.38a3,3,0,0,0,4.29.82c1.76-1.41,1.05-5.91,1.05-5.91-.42-2.54-.55-5.27,2.64-5.27s2.34,4.19,5.17,4.19,2.07-4.25,5-4.25,3.07,2.76,2.63,5.3c0,0-.71,4.51,1.05,5.92a3,3,0,0,0,4.29-.8C54.29,18.64,52.66,18.7,52.44,17.1ZM13.2,0c-.41,0-.77.11-1.26,1.2C10.72,3.89,8.46,11.28,7.14,15.43,5.85,11.45,3.62,3.8,2.36,1.22,1.81.1,1.52,0,1.07,0,.25,0,0,.37,0,1.12,0,3.21,3.77,15,5.71,18.43c.49.87.9,1.25,1.48,1.25s.9-.4,1.35-1.3a50.06,50.06,0,0,0,2.37-5.79c2.56-7.46,3.38-9.89,3.38-11.33C14.29.45,14.05,0,13.2,0ZM27.1,5.36c-1.24,0-1.3,1.11-1.3,2a5.12,5.12,0,0,0-4.45-2.2c-4.21,0-6.26,3.45-6.26,7.69,0,5.43,3.4,6.93,6.22,6.93a5.39,5.39,0,0,0,4.5-2c.06,1,.22,1.89,1.38,1.89.53,0,1-.16,1.08-1.86.13-1.91.16-3.5.16-5.54,0-1.64,0-3.13-.16-5.07C28.18,5.63,27.65,5.36,27.1,5.36Zm-5.39,12c-2.39,0-3.9-1.57-3.9-4.8,0-2.68,1-4.69,3.66-4.69,1.7,0,4.23.83,4.21,4.72C25.68,15.17,24.52,17.32,21.71,17.32ZM62,5.38a6.85,6.85,0,0,0-7.2,7.22c0,3.84,2.37,7.24,6.79,7.24,4.07,0,7.07-2.89,7.07-7.54C68.68,8.06,66.18,5.38,62,5.38Zm-.28,11.91c-2.64,0-4-1.88-4-4.57S59.13,8,61.93,8s4,2,4,4.51S64.7,17.27,61.73,17.29Zm14.78-6.1c-1.84-.45-3.33-.83-3.33-2,0-1,1.1-1.51,2.59-1.51,1.82,0,3.3.75,4.23.75a.92.92,0,0,0,1-1c0-2-3.49-2.41-5-2.39C72.65,5,70.5,6.89,70.5,9.46s2.4,3.43,4.53,4c1.79.51,3.38.93,3.38,2.26,0,1.67-2.45,1.81-3.41,1.81-2.56,0-3.33-1.22-4.15-1.22-.49,0-.9.42-.9,1.14,0,2.12,3.38,2.5,5.16,2.5,3.93,0,6-1.77,6-4.49C81.14,12.59,78.77,11.75,76.5,11.19ZM91.25.55c-.6-.22-1.13-.08-1.71,1.27s-1.32,3.18-2,5.12c-1.78,4.85-2.23,6.1-1,6.57.58.22,1.15.14,1.73-1.2C89,10.55,89.38,9.62,90,7.93s1.16-3.44,1.74-5.23S91.91.79,91.25.55ZM85.51,16.81a1.65,1.65,0,0,0-2.09.93A1.65,1.65,0,0,0,86.49,19,1.82,1.82,0,0,0,85.51,16.81Z" fill="#fff"/></svg>